<svg width="25" height="25" viewBox="0 0 25 25" fill="none" xmlns="http://www.w3.org/2000/svg">
<path d="M24.457 14.1194C24.0801 14.0183 23.6684 14.233 23.56 14.6373L23.5431 14.7006L21.8483 14.2465C21.9539 13.6801 22.0097 13.0965 22.0097 12.5C22.0097 11.9034 21.9538 11.3197 21.8483 10.7533L23.543 10.2992L23.56 10.3625C23.6683 10.7669 24.0801 10.9815 24.457 10.8804C24.8477 10.7757 25.0796 10.3741 24.9748 9.98337L24.5618 8.44191C24.4571 8.05119 24.0557 7.81926 23.6648 7.92404C23.2741 8.02873 23.0422 8.43034 23.1469 8.82106L23.1639 8.88435L21.4686 9.33859C21.0736 8.22131 20.4757 7.19919 19.7189 6.31691L20.9631 5.07272L21.0095 5.11906C21.2954 5.40504 21.7592 5.40514 22.0453 5.11906C22.3313 4.83302 22.3313 4.3693 22.0453 4.08326L20.9168 2.95484C20.6309 2.66881 20.1671 2.66881 19.881 2.95484C19.595 3.24088 19.595 3.7046 19.881 3.99064L19.9274 4.03697L18.6832 5.28112C17.8008 4.52428 16.7787 3.92633 15.6613 3.53136L16.1155 1.83624L16.1788 1.85318C16.5848 1.96197 16.9754 1.71021 17.0758 1.33531C17.1805 0.944587 16.9487 0.542975 16.5579 0.438287L15.0165 0.0252492C14.6257 -0.0794873 14.2241 0.152447 14.1195 0.543121C14.0148 0.933844 14.2466 1.33546 14.6373 1.44014L14.7006 1.45709L14.2465 3.15182C13.6802 3.04625 13.0965 2.99049 12.5 2.99049C11.9036 2.99049 11.3199 3.04625 10.7536 3.15182L10.2995 1.45709L10.3627 1.44014C10.7535 1.33546 10.9853 0.933844 10.8806 0.543121C10.776 0.152349 10.3744 -0.079585 9.98363 0.0251515L8.44218 0.438189C8.05146 0.542877 7.81962 0.944489 7.92431 1.33521C8.02475 1.71016 8.41537 1.96192 8.82133 1.85308L8.88461 1.83614L9.33881 3.53126C8.22148 3.92628 7.19931 4.52418 6.31694 5.28102L5.07275 4.03688L5.11908 3.99054C5.40512 3.7045 5.40512 3.24078 5.11908 2.95475C4.8331 2.66871 4.36933 2.66871 4.08329 2.95475L2.95487 4.08317C2.66884 4.3692 2.66884 4.83292 2.95487 5.11896C3.24091 5.40504 3.70473 5.40494 3.99067 5.11896L4.037 5.07262L5.28119 6.31681C4.52441 7.19914 3.92651 8.22126 3.53149 9.3385L1.83627 8.88425L1.85321 8.82097C1.9579 8.43024 1.72607 8.02863 1.33534 7.92394C0.944426 7.81916 0.54301 8.05109 0.438322 8.44182L0.0251873 9.98342C-0.0795002 10.3741 0.152336 10.7758 0.543058 10.8804C0.920012 10.9815 1.33173 10.7669 1.44008 10.3626L1.45702 10.2993L3.15175 10.7534C3.04618 11.3198 2.99037 11.9035 2.99037 12.5C2.99037 13.0965 3.04613 13.6802 3.1517 14.2465L1.45697 14.7006L1.44003 14.6373C1.33168 14.233 0.919914 14.0184 0.54301 14.1195C0.152287 14.2241 -0.0795491 14.6258 0.0251384 15.0165L0.438176 16.5579C0.542912 16.9487 0.944279 17.1806 1.3352 17.0758C1.72592 16.9711 1.95776 16.5695 1.85307 16.1788L1.83612 16.1155L3.53124 15.6613C3.92626 16.7786 4.52416 17.8008 5.281 18.6832L4.03681 19.9274L3.99047 19.881C3.70453 19.5951 3.24071 19.595 2.95468 19.881C2.66864 20.1671 2.66864 20.6308 2.95468 20.9168L4.0831 22.0453C4.36908 22.3313 4.83285 22.3313 5.11889 22.0453C5.40492 21.7592 5.40492 21.2955 5.11889 21.0095L5.07255 20.9631L6.31674 19.719C7.19911 20.4758 8.22128 21.0738 9.33862 21.4687L8.88442 23.1639L8.82113 23.1469C8.41518 23.0381 8.02455 23.2899 7.92411 23.6648C7.81943 24.0555 8.05126 24.4571 8.44198 24.5618L9.98344 24.9748C10.3742 25.0796 10.7758 24.8476 10.8805 24.457C10.9851 24.0663 10.7533 23.6646 10.3626 23.56L10.2993 23.543L10.7534 21.8483C11.3198 21.9538 11.9034 22.0096 12.4999 22.0096C13.0964 22.0096 13.68 21.9538 14.2464 21.8483L14.7005 23.543L14.6372 23.56C14.2465 23.6646 14.0146 24.0663 14.1193 24.457C14.224 24.8476 14.6256 25.0796 15.0163 24.9748L16.5578 24.5618C16.9485 24.4571 17.1804 24.0555 17.0757 23.6648C16.9752 23.2898 16.5846 23.0381 16.1787 23.1469L16.1154 23.1639L15.6612 21.4687C16.7785 21.0737 17.8007 20.4758 18.683 19.719L19.9272 20.9631L19.8809 21.0095C19.5949 21.2955 19.5949 21.7592 19.8809 22.0453C20.1669 22.3313 20.6307 22.3313 20.9167 22.0453L22.0451 20.9168C22.3311 20.6308 22.3311 20.1671 22.0451 19.881C21.7591 19.595 21.2953 19.5951 21.0093 19.881L20.963 19.9274L19.7188 18.6832C20.4756 17.8008 21.0736 16.7786 21.4685 15.6613L23.1637 16.1155L23.1467 16.1788C23.042 16.5695 23.2739 16.9711 23.6646 17.0758C24.0555 17.1806 24.4569 16.9487 24.5616 16.5579L24.9746 15.0165C25.0796 14.6257 24.8477 14.2241 24.457 14.1194ZM12.5 20.5448C8.06415 20.5448 4.45527 16.9359 4.45527 12.5C4.45527 8.06413 8.06415 4.45524 12.5 4.45524C16.9359 4.45524 20.5448 8.06413 20.5448 12.5C20.5448 16.9359 16.9359 20.5448 12.5 20.5448Z" fill="#F21F5B"/>
<path d="M12.5 7.74072C12.9045 7.74072 13.2324 7.41281 13.2324 7.0083C13.2324 6.6038 12.9045 6.27588 12.5 6.27588C12.0955 6.27588 11.7676 6.6038 11.7676 7.0083C11.7676 7.41281 12.0955 7.74072 12.5 7.74072Z" fill="#F21F5B"/>
<path d="M12.5 18.7241C12.9045 18.7241 13.2324 18.3962 13.2324 17.9917C13.2324 17.5872 12.9045 17.2593 12.5 17.2593C12.0955 17.2593 11.7676 17.5872 11.7676 17.9917C11.7676 18.3962 12.0955 18.7241 12.5 18.7241Z" fill="#F21F5B"/>
<path d="M10.9307 14.8013C11.3352 14.8013 11.6631 14.4734 11.6631 14.0688C11.6631 13.6643 11.3352 13.3364 10.9307 13.3364C10.5262 13.3364 10.1982 13.6643 10.1982 14.0688C10.1982 14.4734 10.5262 14.8013 10.9307 14.8013Z" fill="#F21F5B"/>
<path d="M14.0693 14.8013C14.4738 14.8013 14.8018 14.4734 14.8018 14.0688C14.8018 13.6643 14.4738 13.3364 14.0693 13.3364C13.6648 13.3364 13.3369 13.6643 13.3369 14.0688C13.3369 14.4734 13.6648 14.8013 14.0693 14.8013Z" fill="#F21F5B"/>
<path d="M14.0693 11.6636C14.4738 11.6636 14.8018 11.3357 14.8018 10.9312C14.8018 10.5266 14.4738 10.1987 14.0693 10.1987C13.6648 10.1987 13.3369 10.5266 13.3369 10.9312C13.3369 11.3357 13.6648 11.6636 14.0693 11.6636Z" fill="#F21F5B"/>
<path d="M10.9307 11.6636C11.3352 11.6636 11.6631 11.3357 11.6631 10.9312C11.6631 10.5266 11.3352 10.1987 10.9307 10.1987C10.5262 10.1987 10.1982 10.5266 10.1982 10.9312C10.1982 11.3357 10.5262 11.6636 10.9307 11.6636Z" fill="#F21F5B"/>
<path d="M17.9912 13.2324C18.3957 13.2324 18.7236 12.9045 18.7236 12.5C18.7236 12.0955 18.3957 11.7676 17.9912 11.7676C17.5867 11.7676 17.2588 12.0955 17.2588 12.5C17.2588 12.9045 17.5867 13.2324 17.9912 13.2324Z" fill="#F21F5B"/>
<path d="M16.3828 9.34961C16.7873 9.34961 17.1152 9.02169 17.1152 8.61719C17.1152 8.21268 16.7873 7.88477 16.3828 7.88477C15.9783 7.88477 15.6504 8.21268 15.6504 8.61719C15.6504 9.02169 15.9783 9.34961 16.3828 9.34961Z" fill="#F21F5B"/>
<path d="M8.61719 17.1157C9.02169 17.1157 9.34961 16.7878 9.34961 16.3833C9.34961 15.9788 9.02169 15.6509 8.61719 15.6509C8.21268 15.6509 7.88477 15.9788 7.88477 16.3833C7.88477 16.7878 8.21268 17.1157 8.61719 17.1157Z" fill="#F21F5B"/>
<path d="M16.3828 17.1157C16.7873 17.1157 17.1152 16.7878 17.1152 16.3833C17.1152 15.9788 16.7873 15.6509 16.3828 15.6509C15.9783 15.6509 15.6504 15.9788 15.6504 16.3833C15.6504 16.7878 15.9783 17.1157 16.3828 17.1157Z" fill="#F21F5B"/>
<path d="M8.61719 9.34961C9.02169 9.34961 9.34961 9.02169 9.34961 8.61719C9.34961 8.21268 9.02169 7.88477 8.61719 7.88477C8.21268 7.88477 7.88477 8.21268 7.88477 8.61719C7.88477 9.02169 8.21268 9.34961 8.61719 9.34961Z" fill="#F21F5B"/>
</svg>
