<svg width="20" height="24" viewBox="0 0 20 24" fill="none" xmlns="http://www.w3.org/2000/svg">
<path d="M19.36 18.5297L13.3339 10.0071V1.71429H15.0006V0H5.00022V1.71429H6.66695V10.0071L0.640882 18.5297C0.277396 19.0435 0.0592023 19.6508 0.0104453 20.2842C-0.0383116 20.9176 0.0842689 21.5526 0.364623 22.1189C0.644978 22.6851 1.07218 23.1605 1.59894 23.4925C2.12571 23.8245 2.73152 24.0002 3.34932 24H16.6507C17.2685 24.0002 17.8743 23.8245 18.4011 23.4925C18.9278 23.1605 19.355 22.6851 19.6354 22.1189C19.9157 21.5526 20.0383 20.9176 19.9896 20.2842C19.9408 19.6508 19.7226 19.0435 19.3591 18.5297H19.36ZM8.33368 10.5643V1.71429H11.6671V10.5643L13.8947 13.7143H6.1061L8.33368 10.5643ZM16.6515 22.2857H3.35016C3.03997 22.2854 2.73591 22.1969 2.47153 22.03C2.20715 21.8632 1.99273 21.6244 1.85195 21.3401C1.71116 21.0559 1.64948 20.7371 1.67371 20.419C1.69795 20.101 1.80715 19.796 1.98927 19.5377L4.89438 15.4286H15.1065L18.0124 19.5377C18.1945 19.796 18.3037 20.101 18.328 20.419C18.3522 20.7371 18.2905 21.0559 18.1497 21.3401C18.0089 21.6244 17.7945 21.8632 17.5301 22.03C17.2658 22.1969 16.9617 22.2854 16.6515 22.2857Z" fill="#F21F5B"/>
</svg>
