<svg width="25" height="25" viewBox="0 0 25 25" fill="none" xmlns="http://www.w3.org/2000/svg">
<path d="M14.0687 6.27588H10.1461C9.74165 6.27588 9.41372 6.60381 9.41372 7.0083V12.5519H8.57715C8.17266 12.5519 7.84473 12.8798 7.84473 13.2843C7.84473 13.6888 8.17266 14.0167 8.57715 14.0167H9.41372V15.6899H8.57715C8.17266 15.6899 7.84473 16.0179 7.84473 16.4224C7.84473 16.8269 8.17266 17.1548 8.57715 17.1548H9.41372V18.7759C9.41372 19.1804 9.74165 19.5083 10.1461 19.5083C10.5506 19.5083 10.8786 19.1804 10.8786 18.7759V17.1548H14.0687C14.4732 17.1548 14.8011 16.8269 14.8011 16.4224C14.8011 16.0179 14.4732 15.6899 14.0687 15.6899H10.8786V14.0167H14.0687C16.2029 14.0167 17.9392 12.2805 17.9392 10.1463C17.9391 7.95937 16.1577 6.27588 14.0687 6.27588ZM14.0687 12.5519H10.8786V7.74072H14.0687C15.3872 7.74072 16.4743 8.8042 16.4743 10.1463C16.4743 11.4728 15.3952 12.5519 14.0687 12.5519Z" fill="#F21F5B"/>
<path d="M12.5 0C5.60747 0 0 5.60747 0 12.5C0 19.3925 5.60747 25 12.5 25C19.3925 25 25 19.3925 25 12.5C25 5.60747 19.3925 0 12.5 0ZM12.5 23.5352C6.41519 23.5352 1.46484 18.5848 1.46484 12.5C1.46484 6.41519 6.41519 1.46484 12.5 1.46484C18.5848 1.46484 23.5352 6.41519 23.5352 12.5C23.5352 18.5848 18.5848 23.5352 12.5 23.5352Z" fill="#F21F5B"/>
</svg>
