<svg width="25" height="25" viewBox="0 0 25 25" fill="none" xmlns="http://www.w3.org/2000/svg">
<path d="M0.732422 11.7676H11.7676V0.732422C11.7676 0.32793 12.0955 0 12.5 0C12.9045 0 13.2324 0.32793 13.2324 0.732422V11.7676H24.2676C24.6721 11.7676 25 12.0955 25 12.5C25 12.9045 24.6721 13.2324 24.2676 13.2324H13.2324V24.2676C13.2324 24.6721 12.9045 25 12.5 25C12.0955 25 11.7676 24.6721 11.7676 24.2676V13.2324H0.732422C0.32793 13.2324 0 12.9045 0 12.5C0 12.0955 0.32793 11.7676 0.732422 11.7676Z" fill="#F21F5B"/>
<path d="M0.732422 10.2539C0.327929 10.2539 0 9.92598 0 9.52148C0 9.11699 0.327929 8.78906 0.732422 8.78906C5.17485 8.78906 8.78906 5.17485 8.78906 0.732422C8.78906 0.32793 9.11699 0 9.52148 0C9.92598 0 10.2539 0.32793 10.2539 0.732422C10.2539 5.98257 5.98257 10.2539 0.732422 10.2539Z" fill="#F21F5B"/>
<path d="M24.2676 14.7461C24.6721 14.7461 25 15.074 25 15.4785C25 15.883 24.6721 16.2109 24.2676 16.2109C19.8251 16.2109 16.2109 19.8251 16.2109 24.2676C16.2109 24.6721 15.883 25 15.4785 25C15.074 25 14.7461 24.6721 14.7461 24.2676C14.7461 19.0174 19.0174 14.7461 24.2676 14.7461Z" fill="#F21F5B"/>
</svg>
