<svg width="24" height="24" viewBox="0 0 24 24" fill="none" xmlns="http://www.w3.org/2000/svg">
<path d="M3.05298 1.46729C2.43958 1.46729 1.94043 1.96643 1.94043 2.57983C1.94043 3.19324 2.43958 3.6922 3.05298 3.6922C3.66638 3.6922 4.16534 3.19305 4.16534 2.57965C4.16534 1.96625 3.66638 1.46729 3.05298 1.46729ZM3.05298 2.98212C2.83105 2.98212 2.65051 2.80157 2.65051 2.57965C2.65051 2.35791 2.83105 2.17737 3.05298 2.17737C3.27472 2.17737 3.45526 2.35791 3.45526 2.57965C3.45526 2.80157 3.27472 2.98212 3.05298 2.98212Z" fill="#F21F5B"/>
<path d="M6.0354 1.46729C5.422 1.46729 4.92285 1.96643 4.92285 2.57983C4.92285 3.19324 5.422 3.6922 6.0354 3.6922C6.6488 3.6922 7.14777 3.19324 7.14777 2.57983C7.14777 1.96643 6.6488 1.46729 6.0354 1.46729ZM6.0354 2.98212C5.81348 2.98212 5.63293 2.80157 5.63293 2.57965C5.63293 2.35791 5.81348 2.17737 6.0354 2.17737C6.25714 2.17737 6.43768 2.35791 6.43768 2.57965C6.43768 2.80157 6.25714 2.98212 6.0354 2.98212Z" fill="#F21F5B"/>
<path d="M9.01764 1.46729C8.40424 1.46729 7.90527 1.96643 7.90527 2.57983C7.90527 3.19324 8.40424 3.6922 9.01764 3.6922C9.63104 3.6922 10.13 3.19324 10.13 2.57983C10.13 1.96643 9.63104 1.46729 9.01764 1.46729ZM9.01764 2.98212C8.79572 2.98212 8.61536 2.80157 8.61536 2.57965C8.61536 2.35791 8.79572 2.17737 9.01764 2.17737C9.23956 2.17737 9.4201 2.35791 9.4201 2.57965C9.4201 2.80157 9.23938 2.98212 9.01764 2.98212Z" fill="#F21F5B"/>
<path d="M22.6983 0H1.3017C0.583923 0 0 0.583923 0 1.3017V16.9704C0 17.6882 0.583923 18.2721 1.3017 18.2721H3.59198C3.48322 18.4114 3.49274 18.613 3.62091 18.7412L5.32672 20.447C5.19891 20.7092 5.08704 20.9793 4.99182 21.2543H2.57977C2.38385 21.2543 2.22491 21.4133 2.22491 21.6094V23.645C2.22491 23.8411 2.38385 24 2.57977 24H9.58575C9.78186 24 9.9408 23.8411 9.9408 23.645C9.9408 22.5617 10.8221 21.6804 11.9053 21.6804C12.9884 21.6804 13.8697 22.5617 13.8697 23.645C13.8697 23.8411 14.0286 24 14.2247 24H21.2307C21.4268 24 21.5858 23.8411 21.5858 23.645V21.6094C21.5858 21.4133 21.4268 21.2543 21.2307 21.2543H18.8187C18.7234 20.9793 18.6116 20.7092 18.4838 20.447L20.1898 18.7412C20.3177 18.613 20.3273 18.4114 20.2185 18.2721H22.6981C23.4159 18.2721 23.9998 17.6882 23.9998 16.9704V8.18738C23.9998 7.99127 23.8409 7.83234 23.645 7.83234C23.4489 7.83234 23.2899 7.99127 23.2899 8.18738V16.9704C23.2899 17.2967 23.0244 17.562 22.6981 17.562H19.5126L17.4201 15.4695V13.0413C17.4201 12.8452 17.261 12.6863 17.0651 12.6863H16.426V10.4985L16.927 10.036C17.0277 9.94299 17.066 9.80054 17.0253 9.6698L16.1733 6.92432C16.1272 6.77582 15.9897 6.67456 15.8342 6.67456H14.8874C14.7319 6.67456 14.5944 6.77582 14.5483 6.92432L13.6963 9.6698C13.6556 9.80054 13.6939 9.94299 13.7946 10.036L14.2958 10.4985V12.6863H13.6567C13.4606 12.6863 13.3017 12.8452 13.3017 13.0413V13.9644H10.5088V13.4251L11.8722 12.0617C11.9388 11.9951 11.9762 11.9048 11.9762 11.8107V8.89929C11.9762 8.80444 11.9381 8.71344 11.8705 8.64679L9.97723 6.77692C9.87524 6.67621 9.7229 6.64673 9.59088 6.70184C9.45868 6.75714 9.37262 6.88623 9.37262 7.02942V10.1944L8.44958 10.7756L7.52655 10.1944V9.99207C7.52655 9.79596 7.36761 9.63702 7.17151 9.63702C6.9754 9.63702 6.81647 9.79596 6.81647 9.99207V10.3903C6.81647 10.5125 6.87909 10.6258 6.98236 10.6908L8.26044 11.4955C8.37598 11.5684 8.52319 11.5684 8.63873 11.4955L9.91681 10.6908C10.0201 10.6258 10.0827 10.5125 10.0827 10.3903V7.87903L11.2661 9.04761V11.6635L9.90271 13.0269C9.83606 13.0935 9.79871 13.1838 9.79871 13.2781V13.9715C9.63666 14.0045 9.51471 14.1476 9.51471 14.3194V16.7314C9.2395 16.8265 8.9696 16.9385 8.70721 17.0662L7.10046 15.4594V13.2781C7.10046 13.1838 7.06311 13.0935 6.99646 13.0269L5.63306 11.6635V9.04761L6.81647 7.87903V8.32928C6.81647 8.52539 6.9754 8.68433 7.17151 8.68433C7.36761 8.68433 7.52655 8.52539 7.52655 8.32928V7.0296C7.52655 6.88623 7.44049 6.75714 7.30829 6.70203C7.17627 6.64673 7.02393 6.67639 6.92194 6.77692L5.02844 8.64679C4.96088 8.71344 4.92297 8.80444 4.92297 8.89929V11.8107C4.92297 11.9048 4.96033 11.9951 5.02698 12.0617L6.39038 13.4251V15.4695L4.29785 17.562H1.3017C0.975403 17.562 0.710083 17.2967 0.710083 16.9704V5.15973H23.2899V6.53339C23.2899 6.72931 23.4489 6.88824 23.645 6.88824C23.8411 6.88824 24 6.72931 24 6.53339V1.3017C24 0.583923 23.4161 0 22.6983 0V0ZM14.8916 10.0823L14.441 9.66632L15.1492 7.38464H15.5728L16.2808 9.66632L15.8302 10.0823C15.7575 10.1495 15.7159 10.244 15.7159 10.3433V12.6865H15.006V10.3433C15.0059 10.244 14.9645 10.1495 14.8916 10.0823ZM16.71 13.3964V15.4596L15.1033 17.0663C14.8409 16.9387 14.571 16.8267 14.2958 16.7314V14.3196C14.2958 14.1478 14.1738 14.0046 14.0118 13.9717V13.3965H16.71V13.3964ZM8.80573 17.813C9.17834 17.6146 9.57129 17.4516 9.97357 17.3287C10.1228 17.2831 10.2248 17.1453 10.2248 16.9891V14.6744H13.5857V16.9891C13.5857 17.1453 13.6879 17.2831 13.8371 17.3287C14.2394 17.4516 14.6323 17.6146 15.0049 17.813C15.1428 17.8865 15.3124 17.8612 15.423 17.7508L17.0601 16.1136L19.1144 18.1681C19.1146 18.1681 19.1146 18.1683 19.1147 18.1685L19.4366 18.4902L17.7995 20.1273C17.6891 20.2377 17.6638 20.4075 17.7372 20.5453C17.9357 20.9178 18.0987 21.3107 18.2216 21.7132C18.2672 21.8624 18.405 21.9644 18.561 21.9644H20.8757V23.2899H17.2661C17.0826 20.4922 14.7486 18.2723 11.9053 18.2723C11.1451 18.2723 10.4103 18.4279 9.72107 18.7348C9.54199 18.8146 9.46143 19.0245 9.54126 19.2037C9.62091 19.3828 9.83112 19.4632 10.01 19.3835C10.6077 19.1173 11.2452 18.9824 11.9053 18.9824C14.3569 18.9824 16.3727 20.8841 16.5546 23.2899H14.5563C14.3822 21.9825 13.2598 20.9705 11.9053 20.9705C10.5509 20.9705 9.42847 21.9825 9.25433 23.2899H7.25574C7.34198 22.1241 7.85303 21.0529 8.71655 20.243C8.85956 20.109 8.86688 19.8843 8.73267 19.7411C8.59863 19.5983 8.37396 19.591 8.23096 19.725C7.23816 20.6559 6.63538 21.9393 6.54492 23.2899H2.93481V21.9644H5.24945C5.40564 21.9644 5.54352 21.8624 5.58911 21.7132C5.71198 21.3107 5.87494 20.9178 6.07343 20.5453C6.14685 20.4075 6.12158 20.2377 6.01117 20.1273L4.37402 18.4902L4.69592 18.1685C4.69592 18.1683 4.69611 18.1681 4.69629 18.1681L6.75055 16.1136L8.3877 17.7508C8.49811 17.8612 8.66785 17.8865 8.80573 17.813ZM0.710083 4.44965V1.3017C0.710083 0.975403 0.975586 0.710083 1.3017 0.710083H22.6983C23.0246 0.710083 23.2899 0.975586 23.2899 1.3017V4.44965H0.710083Z" fill="#F21F5B"/>
</svg>
