<?xml version="1.0" encoding="utf-8"?>
<!-- Uploaded to: SVG Repo, www.svgrepo.com, Generator: SVG Repo Mixer Tools -->
<svg fill="#000000" width="800px" height="800px" viewBox="0 0 32 32" version="1.1" xmlns="http://www.w3.org/2000/svg">
<title>googleplay</title>
<path d="M17.929 17.32l-13.746 13.662c0.067 0.009 0.144 0.014 0.223 0.014 0.335 0 0.648-0.090 0.918-0.247l-0.009 0.005 16.65-9.422zM17.929 14.737l4.071-4.046-16.685-9.442c-0.262-0.153-0.577-0.244-0.913-0.244-0.095 0-0.188 0.007-0.28 0.021l0.010-0.001zM2.675 2.159c-0.089 0.209-0.14 0.452-0.14 0.707 0 0.001 0 0.002 0 0.003v-0 26.264c0 0.002 0 0.003 0 0.005 0 0.269 0.057 0.525 0.16 0.756l-0.005-0.012 13.94-13.855zM28.519 17.622l-4.897 2.772-4.393-4.365 4.427-4.4 4.862 2.752c0.569 0.326 0.945 0.929 0.945 1.621s-0.377 1.295-0.936 1.616l-0.009 0.005z"></path>
</svg>