<svg width="240" height="25" viewBox="0 0 240 25" fill="none" xmlns="http://www.w3.org/2000/svg">
<path fill-rule="evenodd" clip-rule="evenodd" d="M8.20661 15.1783C8.20661 15.9173 7.58271 16.5162 6.81289 16.5162C6.04382 16.5162 5.41992 15.9173 5.41992 15.1783C5.41992 14.44 6.04382 13.8403 6.81289 13.8403C7.58271 13.8403 8.20661 14.44 8.20661 15.1783ZM14.9018 6.54054C14.9018 7.64836 13.966 8.54677 12.812 8.54677C11.6572 8.54677 10.7214 7.64836 10.7214 6.54054C10.7214 5.432 11.6572 4.5343 12.812 4.5343C13.966 4.5343 14.9018 5.432 14.9018 6.54054ZM20.9003 9.4198C20.9003 10.5276 19.9645 11.426 18.8105 11.426C17.6565 11.426 16.7199 10.5276 16.7199 9.4198C16.7199 8.31127 17.6565 7.41357 18.8105 7.41357C19.9645 7.41357 20.9003 8.31127 20.9003 9.4198ZM26.8989 12.2989C26.8989 13.4075 25.9631 14.3052 24.8091 14.3052C23.6551 14.3052 22.7193 13.4075 22.7193 12.2989C22.7193 11.1911 23.6551 10.2927 24.8091 10.2927C25.9631 10.2927 26.8989 11.1911 26.8989 12.2989ZM20.9003 15.1784C20.9003 16.2862 19.9645 17.1846 18.8105 17.1846C17.6565 17.1846 16.7199 16.2862 16.7199 15.1784C16.7199 14.0699 17.6565 13.1722 18.8105 13.1722C19.9645 13.1722 20.9003 14.0699 20.9003 15.1784ZM32.8972 15.1784C32.8972 16.2862 31.9614 17.1846 30.8066 17.1846C29.6526 17.1846 28.7168 16.2862 28.7168 15.1784C28.7168 14.0699 29.6526 13.1722 30.8066 13.1722C31.9614 13.1722 32.8972 14.0699 32.8972 15.1784ZM32.2006 20.9369C32.2006 21.6759 31.5767 22.2748 30.8069 22.2748C30.0378 22.2748 29.4131 21.6759 29.4131 20.9369C29.4131 20.1979 30.0378 19.5996 30.8069 19.5996C31.5767 19.5996 32.2006 20.1979 32.2006 20.9369ZM38.1996 18.0576C38.1996 18.7966 37.5757 19.3956 36.8059 19.3956C36.0368 19.3956 35.4129 18.7966 35.4129 18.0576C35.4129 17.3193 36.0368 16.7204 36.8059 16.7204C37.5757 16.7204 38.1996 17.3193 38.1996 18.0576ZM38.8961 12.2989C38.8961 13.4068 37.9603 14.3052 36.8063 14.3052C35.6523 14.3052 34.7157 13.4068 34.7157 12.2989C34.7157 11.1911 35.6523 10.2927 36.8063 10.2927C37.9603 10.2927 38.8961 11.1911 38.8961 12.2989ZM32.8972 9.41966C32.8972 10.5275 31.9614 11.4259 30.8066 11.4259C29.6526 11.4259 28.7168 10.5275 28.7168 9.41966C28.7168 8.31184 29.6526 7.41343 30.8066 7.41343C31.9614 7.41343 32.8972 8.31184 32.8972 9.41966ZM26.2025 18.0576C26.2025 18.7966 25.5786 19.3956 24.8087 19.3956C24.0397 19.3956 23.415 18.7966 23.415 18.0576C23.415 17.3186 24.0397 16.7204 24.8087 16.7204C25.5786 16.7204 26.2025 17.3186 26.2025 18.0576ZM38.8961 6.54032C38.8961 7.64814 37.9603 8.54655 36.8063 8.54655C35.6523 8.54655 34.7157 7.64814 34.7157 6.54032C34.7157 5.4325 35.6523 4.53409 36.8063 4.53409C37.9603 4.53409 38.8961 5.4325 38.8961 6.54032ZM44.1981 3.66098C44.1981 4.40001 43.5742 4.99895 42.8044 4.99895C42.0345 4.99895 41.4114 4.40001 41.4114 3.66098C41.4114 2.92267 42.0345 2.32373 42.8044 2.32373C43.5742 2.32373 44.1981 2.92267 44.1981 3.66098ZM44.1981 15.1783C44.1981 15.9173 43.5742 16.5162 42.8044 16.5162C42.0353 16.5162 41.4106 15.9173 41.4106 15.1783C41.4106 14.4392 42.0353 13.8403 42.8044 13.8403C43.5742 13.8403 44.1981 14.4392 44.1981 15.1783ZM26.2025 6.54054C26.2025 7.27885 25.5786 7.87779 24.8087 7.87779C24.0397 7.87779 23.415 7.27885 23.415 6.54054C23.415 5.80151 24.0397 5.20257 24.8087 5.20257C25.5786 5.20257 26.2025 5.80151 26.2025 6.54054ZM20.2037 20.9369C20.2037 21.6759 19.5798 22.2748 18.81 22.2748C18.0409 22.2748 17.4171 21.6759 17.4171 20.9369C17.4171 20.1979 18.0409 19.5996 18.81 19.5996C19.5798 19.5996 20.2037 20.1979 20.2037 20.9369ZM14.9018 12.2989C14.9018 13.4068 13.966 14.3052 12.812 14.3052C11.658 14.3052 10.7214 13.4068 10.7214 12.2989C10.7214 11.1911 11.658 10.2927 12.812 10.2927C13.966 10.2927 14.9018 11.1911 14.9018 12.2989Z" fill="#1946BA" fill-opacity="0.85"/>
<path fill-rule="evenodd" clip-rule="evenodd" d="M8.90307 9.41981C8.90307 10.5276 7.96722 11.426 6.81323 11.426C5.65924 11.426 4.72339 10.5276 4.72339 9.41981C4.72339 8.31198 5.65924 7.41357 6.81323 7.41357C7.96722 7.41357 8.90307 8.31198 8.90307 9.41981Z" fill="#F21F5B"/>
<path fill-rule="evenodd" clip-rule="evenodd" d="M1.62898 18.0578C1.62898 18.4895 1.26417 18.8397 0.81449 18.8397C0.364064 18.8397 0 18.4895 0 18.0578C0 17.6261 0.364064 17.2759 0.81449 17.2759C1.26417 17.2759 1.62898 17.6261 1.62898 18.0578ZM1.62898 12.2991C1.62898 12.7308 1.26417 13.081 0.81449 13.081C0.364064 13.081 0 12.7308 0 12.2991C0 11.8674 0.364064 11.5172 0.81449 11.5172C1.26417 11.5172 1.62898 11.8674 1.62898 12.2991ZM13.6258 18.0171C13.6258 18.4488 13.261 18.7991 12.8113 18.7991C12.3616 18.7991 11.9968 18.4488 11.9968 18.0171C11.9968 17.5854 12.3616 17.2352 12.8113 17.2352C13.261 17.2352 13.6258 17.5854 13.6258 18.0171ZM13.6258 0.781909C13.6258 1.2136 13.261 1.56382 12.8113 1.56382C12.3616 1.56382 11.9968 1.2136 11.9968 0.781909C11.9968 0.350215 12.3616 0 12.8113 0C13.261 0 13.6258 0.350215 13.6258 0.781909ZM25.5808 23.8166C25.5808 24.2483 25.216 24.5985 24.7663 24.5985C24.3159 24.5985 23.9518 24.2483 23.9518 23.8166C23.9518 23.3849 24.3159 23.0347 24.7663 23.0347C25.216 23.0347 25.5808 23.3849 25.5808 23.8166ZM7.62754 3.66118C7.62754 4.09287 7.26273 4.44309 6.81305 4.44309C6.36263 4.44309 5.99856 4.09287 5.99856 3.66118C5.99856 3.22948 6.36263 2.87927 6.81305 2.87927C7.26273 2.87927 7.62754 3.22948 7.62754 3.66118ZM19.6244 3.66118C19.6244 4.09287 19.2596 4.44309 18.8099 4.44309C18.3595 4.44309 17.9954 4.09287 17.9954 3.66118C17.9954 3.22948 18.3595 2.87927 18.8099 2.87927C19.2596 2.87927 19.6244 3.22948 19.6244 3.66118Z" fill="#1946BA" fill-opacity="0.85"/>
<path fill-rule="evenodd" clip-rule="evenodd" d="M25.5806 23.8164C25.5806 24.2481 25.2158 24.5983 24.7661 24.5983C24.3157 24.5983 23.9517 24.2481 23.9517 23.8164C23.9517 23.3847 24.3157 23.0345 24.7661 23.0345C25.2158 23.0345 25.5806 23.3847 25.5806 23.8164ZM55.6161 9.41971C55.6161 9.85141 55.2513 10.2016 54.8016 10.2016C54.352 10.2016 53.9872 9.85141 53.9872 9.41971C53.9872 8.98802 54.352 8.63781 54.8016 8.63781C55.2513 8.63781 55.6161 8.98802 55.6161 9.41971ZM43.6186 20.9369C43.6186 21.3686 43.2545 21.7188 42.8041 21.7188C42.3552 21.7188 41.9896 21.3686 41.9896 20.9369C41.9896 20.5052 42.3552 20.155 42.8041 20.155C43.2545 20.155 43.6186 20.5052 43.6186 20.9369ZM50.8928 6.54059C50.8928 7.64841 49.9569 8.54682 48.8022 8.54682C47.6482 8.54682 46.7124 7.64841 46.7124 6.54059C46.7124 5.43277 47.6482 4.53436 48.8022 4.53436C49.9569 4.53436 50.8928 5.43277 50.8928 6.54059ZM44.8941 9.41986C44.8941 10.5277 43.9583 11.4261 42.8036 11.4261C41.6503 11.4261 40.7145 10.5277 40.7145 9.41986C40.7145 8.31203 41.6503 7.41363 42.8036 7.41363C43.9583 7.41363 44.8941 8.31203 44.8941 9.41986ZM49.6171 18.0577C49.6171 18.4894 49.2523 18.8396 48.8026 18.8396C48.3521 18.8396 47.9881 18.4894 47.9881 18.0577C47.9881 17.626 48.3521 17.2758 48.8026 17.2758C49.2523 17.2758 49.6171 17.626 49.6171 18.0577ZM50.1958 12.2992C50.1958 13.0375 49.5727 13.6364 48.8029 13.6364C48.0331 13.6364 47.4092 13.0375 47.4092 12.2992C47.4092 11.5602 48.0331 10.9612 48.8029 10.9612C49.5727 10.9612 50.1958 11.5602 50.1958 12.2992ZM31.621 3.66103C31.621 4.09273 31.257 4.44294 30.8065 4.44294C30.3569 4.44294 29.9921 4.09273 29.9921 3.66103C29.9921 3.22934 30.3569 2.87913 30.8065 2.87913C31.257 2.87913 31.621 3.22934 31.621 3.66103ZM49.6171 0.781909C49.6171 1.2136 49.2523 1.56382 48.8026 1.56382C48.3521 1.56382 47.9881 1.2136 47.9881 0.781909C47.9881 0.350215 48.3521 0 48.8026 0C49.2523 0 49.6171 0.350215 49.6171 0.781909ZM55.6161 3.66103C55.6161 4.09273 55.2513 4.44294 54.8016 4.44294C54.352 4.44294 53.9872 4.09273 53.9872 3.66103C53.9872 3.22934 54.352 2.87913 54.8016 2.87913C55.2513 2.87913 55.6161 3.22934 55.6161 3.66103ZM72.4052 8.16301C72.5868 7.74419 72.6211 7.40255 72.5072 7.14668C72.4201 6.95156 72.2473 6.80432 71.9927 6.70926C71.3718 6.49199 70.8797 6.77573 70.5499 7.54335L68.233 12.9381L65.0376 7.42899C64.8484 7.08735 64.6214 6.85721 64.3615 6.74286C64.0972 6.62707 63.8054 6.64422 63.4949 6.79932C63.2068 6.95442 63.049 7.19313 63.0252 7.50904C63.0028 7.81566 63.0877 8.12228 63.2753 8.4196L67.2018 14.9708C67.0284 15.4017 66.843 15.7269 66.6509 15.9371C66.4596 16.1465 66.2384 16.248 65.9741 16.248C65.8558 16.248 65.7433 16.2373 65.6413 16.2165C65.5386 16.1958 65.4173 16.1586 65.2803 16.1065C65.1343 16.0507 65.0338 16.0171 64.9802 16.0071C64.3891 15.822 63.9863 15.9814 63.7927 16.4695C63.5768 17.0235 63.7868 17.4723 64.4174 17.8025C64.8321 18.0241 65.3904 18.1363 66.0761 18.1363C66.8385 18.1363 67.4743 17.8575 67.9657 17.3086C68.4481 16.769 68.9618 15.8906 69.4919 14.6985L72.4052 8.16301ZM75.5926 17.9737C75.9269 17.9737 76.1949 17.8736 76.3878 17.6764C76.5806 17.4805 76.6781 17.2247 76.6781 16.9159V13.1128H81.9239V16.9159C81.9239 17.2239 82.0184 17.4798 82.2046 17.6756C82.3922 17.8736 82.6632 17.9737 83.0094 17.9737C83.3444 17.9737 83.6117 17.8736 83.8045 17.6764C83.9973 17.4805 84.0941 17.2247 84.0941 16.9159V7.6988C84.0941 7.39004 83.9973 7.13202 83.8053 6.93047C83.6117 6.72678 83.3444 6.62385 83.0094 6.62385C82.6632 6.62385 82.3914 6.72749 82.2038 6.93119C82.0185 7.13202 81.9239 7.39004 81.9239 7.6988V11.241H76.6781V7.6988C76.6781 7.39004 76.5806 7.13131 76.3885 6.93047C76.1949 6.72678 75.9269 6.62385 75.5926 6.62385C75.2464 6.62385 74.9747 6.72749 74.7871 6.93119C74.6009 7.13274 74.5071 7.39075 74.5071 7.6988V16.9159C74.5071 17.2239 74.6017 17.4798 74.7878 17.6756C74.9754 17.8736 75.2464 17.9737 75.5926 17.9737ZM88.2077 17.9737C88.5562 17.9737 88.8934 17.7736 89.2121 17.3776L94.5904 10.324V16.9159C94.5904 17.2132 94.6842 17.4662 94.8703 17.6671C95.0579 17.8701 95.3342 17.9737 95.6923 17.9737C96.0392 17.9737 96.3072 17.8736 96.4896 17.6749C96.6698 17.4791 96.7606 17.2239 96.7606 16.9159V7.6988C96.7606 6.98551 96.4129 6.62385 95.7265 6.62385C95.3319 6.62385 94.9835 6.81897 94.6879 7.20421L89.3439 14.3043V7.6988C89.3439 7.39075 89.2493 7.13274 89.0639 6.93119C88.8756 6.72749 88.6046 6.62385 88.2584 6.62385C87.9003 6.62385 87.6263 6.72749 87.4439 6.9319C87.2645 7.13274 87.1729 7.39075 87.1729 7.6988V16.9159C87.1729 17.2461 87.2652 17.5077 87.4461 17.6921C87.6285 17.8786 87.8846 17.9737 88.2077 17.9737ZM105.67 15.9176C105.26 16.1799 104.638 16.3129 103.821 16.3129C103.087 16.3129 102.45 16.2821 101.925 16.2228V12.9665H103.803C105.466 12.9665 106.274 13.509 106.274 14.6233C106.274 15.2258 106.071 15.661 105.67 15.9176ZM103.583 11.3713H101.925V8.37586C102.439 8.32654 102.94 8.30153 103.414 8.30153C104.963 8.30153 105.715 8.77396 105.715 9.7467C105.715 10.8395 105.018 11.3713 103.583 11.3713ZM106.508 11.8973C106.922 11.6858 107.259 11.3798 107.512 10.9846C107.794 10.5422 107.936 10.0598 107.936 9.55158C107.936 7.55536 106.478 6.54259 103.6 6.54259C102.585 6.54259 101.664 6.60906 100.862 6.73914C100.184 6.8535 99.8389 7.24159 99.8389 7.89342V16.7696C99.8389 17.4121 100.178 17.7838 100.846 17.8753C101.647 17.9946 102.619 18.0547 103.736 18.0547C106.894 18.0547 108.495 16.8732 108.495 14.5425C108.495 13.8907 108.302 13.3218 107.922 12.8515C107.574 12.4205 107.099 12.1003 106.508 11.8973ZM118.811 17.72C119 17.5506 119.096 17.3241 119.096 17.046C119.096 16.7573 119 16.525 118.811 16.3549C118.624 16.1869 118.371 16.1019 118.062 16.1019H113.237V13.0808H116.943C117.266 13.0808 117.524 12.9921 117.711 12.8184C117.899 12.6433 117.995 12.4139 117.995 12.1366C117.995 11.8471 117.899 11.617 117.71 11.4533C117.523 11.2904 117.264 11.2082 116.943 11.2082H113.237V8.4965H117.892C118.202 8.4965 118.455 8.41074 118.642 8.24278C118.831 8.07339 118.926 7.84682 118.926 7.56879C118.926 7.27933 118.831 7.04704 118.642 6.87765C118.455 6.70969 118.202 6.62393 117.892 6.62393H112.168C111.823 6.62393 111.549 6.72685 111.355 6.93054C111.164 7.13138 111.066 7.39011 111.066 7.69887V16.8995C111.066 17.2083 111.166 17.467 111.365 17.6679C111.564 17.8708 111.84 17.9738 112.185 17.9738H118.062C118.371 17.9738 118.624 17.8887 118.811 17.72ZM123.413 8.47185C123.884 8.41253 124.357 8.38251 124.817 8.38251C126.377 8.38251 127.136 8.9936 127.136 10.2508C127.136 11.5952 126.338 12.2485 124.699 12.2485C124.162 12.2485 123.73 12.2299 123.413 12.192V8.47185ZM129.408 10.2022C129.408 8.95 128.997 8.01657 128.187 7.4262C127.382 6.84013 126.265 6.54281 124.868 6.54281C123.874 6.54281 122.993 6.61428 122.247 6.75508C121.581 6.88087 121.243 7.28612 121.243 7.95867V16.9156C121.243 17.2237 121.337 17.4795 121.523 17.6761C121.711 17.8733 121.982 17.9734 122.328 17.9734C122.663 17.9734 122.93 17.8741 123.123 17.6768C123.316 17.4802 123.413 17.2251 123.413 16.9156V14.0024C123.751 14.0488 124.223 14.0724 124.817 14.0724C126.17 14.0724 127.285 13.7444 128.129 13.099C128.978 12.4493 129.408 11.4744 129.408 10.2022ZM138.956 15.5741C138.147 16.0322 137.349 16.2638 136.586 16.2638C135.63 16.2638 134.83 15.9086 134.21 15.2067C133.586 14.5013 133.269 13.5178 133.269 12.2828C133.269 11.0899 133.564 10.1214 134.143 9.40528C135.086 8.24242 136.638 8.01442 138.73 8.7849C139.434 9.03648 139.897 8.93284 140.104 8.49043C140.345 7.99298 140.2 7.56558 139.674 7.22108C138.921 6.7172 137.854 6.46133 136.502 6.46133C134.785 6.46133 133.422 6.99737 132.453 8.05302C131.487 9.10652 130.997 10.5345 130.997 12.2992C130.997 14.0846 131.458 15.5176 132.368 16.5597C133.281 17.606 134.649 18.1364 136.434 18.1364C137.842 18.1364 139.019 17.809 139.931 17.1636C140.225 16.9492 140.407 16.7012 140.473 16.4267C140.539 16.1473 140.492 15.9043 140.335 15.7077C140.034 15.291 139.566 15.241 138.956 15.5741ZM151.386 6.62414C150.993 6.62414 150.643 6.81926 150.348 7.2045L145.004 14.3046V7.69837C145.004 7.39104 144.91 7.13231 144.725 6.93076C144.536 6.72778 144.265 6.62414 143.919 6.62414C143.561 6.62414 143.287 6.72778 143.104 6.93147C142.924 7.13302 142.834 7.39104 142.834 7.69837V16.9155C142.834 17.2464 142.925 17.5073 143.106 17.6924C143.288 17.8789 143.545 17.974 143.868 17.974C144.217 17.974 144.554 17.7738 144.872 17.3772L150.25 10.3243V16.9155C150.25 17.2135 150.345 17.4658 150.53 17.6666C150.718 17.8703 150.995 17.974 151.353 17.974C151.699 17.974 151.967 17.8732 152.15 17.6745C152.33 17.4794 152.421 17.2235 152.421 16.9155V7.69837C152.421 6.98579 152.073 6.62414 151.386 6.62414ZM164.427 7.55207C164.427 7.2626 164.33 7.03318 164.141 6.86879C163.954 6.70655 163.696 6.62436 163.375 6.62436H155.349C155.039 6.62436 154.787 6.70655 154.599 6.86879C154.41 7.03318 154.314 7.2626 154.314 7.55207C154.314 7.82938 154.409 8.05881 154.598 8.23392C154.785 8.40831 155.038 8.49622 155.349 8.49622H158.277V16.9157C158.277 17.2237 158.371 17.4796 158.558 17.6754C158.745 17.8734 159.015 17.9735 159.362 17.9735C159.708 17.9735 159.979 17.8734 160.166 17.6761C160.353 17.4796 160.447 17.2244 160.447 16.9157V8.49622H163.375C163.697 8.49622 163.955 8.40831 164.143 8.23392C164.331 8.05881 164.427 7.82938 164.427 7.55207ZM173.315 16.1016H168.491V13.0805H172.198C172.519 13.0805 172.778 12.9926 172.965 12.8182C173.153 12.6431 173.249 12.4143 173.249 12.1363C173.249 11.8469 173.153 11.6167 172.964 11.453C172.776 11.2908 172.518 11.2086 172.198 11.2086H168.491V8.49622H173.145C173.456 8.49622 173.708 8.41117 173.896 8.24249C174.084 8.07382 174.18 7.84653 174.18 7.56851C174.18 7.27904 174.084 7.04747 173.896 6.87808C173.708 6.70941 173.456 6.62436 173.145 6.62436H167.422C167.076 6.62436 166.802 6.72728 166.609 6.93026C166.417 7.13181 166.32 7.38983 166.32 7.69859V16.8992C166.32 17.2087 166.42 17.4667 166.618 17.6683C166.817 17.8713 167.093 17.9735 167.439 17.9735H173.315C173.625 17.9735 173.877 17.8884 174.065 17.7197C174.254 17.5504 174.349 17.3238 174.349 17.0458C174.349 16.757 174.254 16.5247 174.065 16.3553C173.877 16.1867 173.625 16.1016 173.315 16.1016ZM185.255 7.55207C185.255 7.2626 185.158 7.03318 184.969 6.86879C184.782 6.70655 184.524 6.62436 184.203 6.62436H176.177C175.868 6.62436 175.615 6.70655 175.428 6.86879C175.238 7.03318 175.142 7.2626 175.142 7.55207C175.142 7.82938 175.238 8.05881 175.426 8.23392C175.613 8.40831 175.866 8.49622 176.177 8.49622H179.105V16.9157C179.105 17.2237 179.199 17.4796 179.386 17.6754C179.573 17.8734 179.843 17.9735 180.19 17.9735C180.537 17.9735 180.807 17.8734 180.994 17.6761C181.181 17.4796 181.275 17.2244 181.275 16.9157V8.49622H184.203C184.526 8.49622 184.784 8.40831 184.972 8.23392C185.159 8.05881 185.255 7.82938 185.255 7.55207ZM201.477 16.9157V7.69866C201.477 6.98536 201.128 6.62443 200.442 6.62443C200.049 6.62443 199.699 6.81955 199.404 7.20407L194.06 14.3049V7.69866C194.06 7.39061 193.966 7.1326 193.78 6.93104C193.592 6.72735 193.32 6.62443 192.975 6.62443C192.617 6.62443 192.342 6.72735 192.16 6.93176C191.98 7.13331 191.89 7.39133 191.89 7.69866V16.9157C191.89 17.246 191.981 17.5068 192.162 17.6927C192.344 17.8792 192.601 17.9735 192.924 17.9735C193.272 17.9735 193.61 17.7734 193.928 17.3775L199.306 10.3238V16.9157C199.306 17.2131 199.4 17.4661 199.585 17.6669C199.773 17.8706 200.05 17.9735 200.408 17.9735C200.755 17.9735 201.023 17.8735 201.206 17.6748C201.385 17.479 201.477 17.2238 201.477 16.9157ZM212.431 6.62414H204.405C204.096 6.62414 203.843 6.70633 203.655 6.86858C203.466 7.03296 203.37 7.2631 203.37 7.55185C203.37 7.82988 203.466 8.05859 203.653 8.2337C203.841 8.40809 204.094 8.49601 204.405 8.49601H207.333V16.9155C207.333 17.2242 207.427 17.4794 207.613 17.6759C207.801 17.8739 208.072 17.974 208.417 17.974C208.764 17.974 209.035 17.8739 209.222 17.6759C209.408 17.4794 209.503 17.2242 209.503 16.9155V8.49601H212.431C212.753 8.49601 213.011 8.40809 213.199 8.2337C213.387 8.05859 213.482 7.82988 213.482 7.55185C213.482 7.2631 213.386 7.03296 213.197 6.86858C213.01 6.70633 212.752 6.62414 212.431 6.62414ZM225.148 6.62414C224.73 6.62414 224.374 6.84213 224.09 7.27311L220.762 12.4341L217.367 7.28955C217.084 6.84785 216.711 6.62414 216.258 6.62414C215.959 6.62414 215.711 6.71563 215.523 6.89574C215.335 7.07585 215.24 7.35173 215.24 7.71481V16.9155C215.24 17.618 215.583 17.974 216.258 17.974C216.933 17.974 217.276 17.618 217.276 16.9155V10.608L219.654 14.1874C219.915 14.5855 220.254 14.7877 220.661 14.7877C221.057 14.7877 221.39 14.5797 221.651 14.1709L223.995 10.533V16.9155C223.995 17.2242 224.093 17.4801 224.285 17.6766C224.479 17.8739 224.746 17.974 225.08 17.974C225.426 17.974 225.697 17.8739 225.885 17.6759C226.071 17.4801 226.166 17.2242 226.166 16.9155V7.69837C226.166 7.38032 226.078 7.11944 225.904 6.92361C225.727 6.72492 225.473 6.62414 225.148 6.62414Z" fill="#1946BA" fill-opacity="0.85"/>
<mask id="mask0_1_4815" style="mask-type:alpha" maskUnits="userSpaceOnUse" x="228" y="6" width="12" height="13">
<path d="M240 18.1365V6.46191H228.737V18.1365H240Z" fill="#1946BA" fill-opacity="0.85"/>
</mask>
<g mask="url(#mask0_1_4815)">
<path fill-rule="evenodd" clip-rule="evenodd" d="M236.853 15.1608C236.277 15.8927 235.438 16.2637 234.36 16.2637C233.293 16.2637 232.46 15.8927 231.884 15.1608C231.303 14.4225 231.008 13.4598 231.008 12.2991C231.008 11.1384 231.303 10.1756 231.884 9.4366C232.46 8.70544 233.293 8.33378 234.36 8.33378C235.438 8.33378 236.277 8.70544 236.853 9.4366C237.434 10.1749 237.728 11.1384 237.728 12.2991C237.728 13.4598 237.434 14.4232 236.853 15.1608ZM238.527 8.11007C237.547 7.01654 236.145 6.46191 234.36 6.46191C232.575 6.46191 231.175 7.01654 230.201 8.11007C229.23 9.20145 228.737 10.6109 228.737 12.2991C228.737 13.998 229.23 15.4103 230.201 16.4959C231.176 17.5845 232.575 18.1362 234.36 18.1362C236.145 18.1362 237.547 17.5845 238.527 16.4959C239.505 15.4103 240.001 13.998 240.001 12.2991C240.001 10.6109 239.505 9.20145 238.527 8.11007Z" fill="#1946BA" fill-opacity="0.85"/>
</g>
</svg>
