<svg width="25" height="25" viewBox="0 0 25 25" fill="none" xmlns="http://www.w3.org/2000/svg">
<path d="M12.4779 7.61719C9.79767 7.61719 7.61719 9.79767 7.61719 12.4779C7.61719 15.1581 9.79767 17.3386 12.4779 17.3386C15.1581 17.3386 17.3386 15.1581 17.3386 12.4779C17.3386 9.79767 15.1581 7.61719 12.4779 7.61719ZM12.4779 15.8737C10.6054 15.8737 9.08203 14.3503 9.08203 12.4779C9.08203 10.6054 10.6054 9.08203 12.4779 9.08203C14.3503 9.08203 15.8737 10.6054 15.8737 12.4779C15.8737 14.3503 14.3503 15.8737 12.4779 15.8737Z" fill="#F21F5B"/>
<path d="M23.1854 9.30729L21.9662 9.10053C21.8577 8.79841 21.735 8.50201 21.5994 8.21381L22.3174 7.2094C22.942 6.33183 22.8417 5.1466 22.0812 4.39358L20.6162 2.92835C20.2021 2.51427 19.6532 2.28615 19.0707 2.28615C18.6119 2.28615 18.1733 2.42748 17.8051 2.69241L16.7969 3.41053C16.4851 3.26309 16.1686 3.13282 15.8501 3.02029L15.6485 1.82571C15.4711 0.767708 14.5636 0 13.4905 0H11.4207C10.3478 0 9.44025 0.767708 9.26325 1.82362L9.05134 3.06492C8.75208 3.17421 8.45701 3.29838 8.16805 3.43704L7.17813 2.72408C6.80696 2.45686 6.36655 2.31571 5.9044 2.31571C5.31617 2.31571 4.76705 2.54421 4.35754 2.95925L2.88907 4.42295C2.1307 5.18131 2.03133 6.36559 2.65294 7.23877L3.3825 8.26378C3.24803 8.55312 3.1271 8.85086 3.02029 9.1547L1.82553 9.35631C0.767709 9.53388 0 10.4414 0 11.5143V13.5841C0 14.657 0.767709 15.5645 1.82362 15.7417L3.06492 15.9534C3.17422 16.2529 3.29858 16.5482 3.43705 16.8369L2.72675 17.8249C2.10209 18.7025 2.20242 19.8879 2.96288 20.6408L4.42792 22.106C4.84201 22.5201 5.39094 22.7482 5.97345 22.7482C6.43217 22.7482 6.87086 22.6068 7.23878 22.3421L8.2638 21.6125C8.53311 21.7377 8.81235 21.8523 9.09903 21.9555L9.30216 23.1745C9.47973 24.2323 10.3873 25 11.4601 25H13.5348C14.6077 25 15.5154 24.2323 15.6926 23.1758L15.8993 21.9564C16.2014 21.8479 16.4978 21.7253 16.786 21.5897L17.7872 22.3053C18.1584 22.5725 18.5988 22.7139 19.0609 22.7139C19.6433 22.7139 20.1922 22.4857 20.6063 22.0716L22.0713 20.6064C22.8299 19.8481 22.929 18.6638 22.3074 17.7906L21.5888 16.7814C21.728 16.4865 21.851 16.1903 21.9569 15.8958L23.1743 15.6929C24.2322 15.5153 24.9999 14.6078 24.9999 13.5349V11.4693C25.0119 10.3952 24.2497 9.48658 23.1854 9.30729ZM23.535 13.5349C23.535 13.8895 23.2813 14.1895 22.9327 14.2481L21.3179 14.5172C21.02 14.5668 20.7797 14.777 20.6902 15.066C20.5468 15.5308 20.3497 16.0059 20.105 16.4774C19.9665 16.7433 19.9887 17.0601 20.1626 17.3038L21.1142 18.6401C21.3194 18.9285 21.2864 19.3199 21.0356 19.5707L19.5706 21.0358C19.4312 21.1752 19.2549 21.249 19.0609 21.249C18.908 21.249 18.7636 21.2032 18.6411 21.1151L17.3106 20.1641C17.0658 19.9884 16.7477 19.9663 16.4805 20.1061C16.033 20.3403 15.5575 20.5374 15.0671 20.6913C14.781 20.7809 14.5722 21.0205 14.5224 21.3154L14.2481 22.9319C14.1896 23.2815 13.8895 23.5352 13.5348 23.5352H11.4601C11.1054 23.5352 10.8055 23.2815 10.747 22.9328L10.4779 21.3181C10.4286 21.022 10.2204 20.7821 9.93425 20.6917C9.45093 20.5391 8.99069 20.3499 8.56592 20.1292C8.45014 20.0691 8.32483 20.0396 8.20009 20.0396C8.03873 20.0396 7.87813 20.0891 7.74061 20.187L6.3862 21.151C6.26413 21.2389 6.12527 21.2833 5.97345 21.2833C5.77947 21.2833 5.60323 21.2097 5.4638 21.0701L3.99609 19.6026C3.74566 19.3546 3.71381 18.9644 3.91808 18.6773L4.86394 17.3616C5.0419 17.1146 5.06364 16.7942 4.92021 16.5247C4.67969 16.0736 4.48037 15.6006 4.32759 15.1186C4.23718 14.8344 3.99857 14.6267 3.70484 14.5765L2.06795 14.2975C1.71852 14.2387 1.46485 13.9387 1.46485 13.5841V11.5143C1.46485 11.1597 1.71852 10.8597 2.06852 10.8009L3.66345 10.5318C3.96157 10.4816 4.20171 10.2709 4.2904 9.98096C4.44089 9.48849 4.63449 9.01222 4.86585 8.5659C5.00356 8.30059 4.98143 7.98454 4.80805 7.74059L3.84637 6.38943C3.64095 6.10104 3.67394 5.70965 3.924 5.45959L5.39399 3.99456L5.39933 3.98903C5.53151 3.85456 5.7108 3.78056 5.9044 3.78056C6.05737 3.78056 6.20195 3.82633 6.32211 3.91293L7.64352 4.86412C7.89091 5.04227 8.21173 5.06363 8.48028 4.9202C8.93137 4.67968 9.40439 4.48036 9.88581 4.32777C10.17 4.23756 10.3777 3.99933 10.4283 3.70483L10.7075 2.06795C10.7661 1.71852 11.0661 1.46484 11.4208 1.46484H13.4907C13.8453 1.46484 14.1453 1.71852 14.2041 2.06852L14.4732 3.66402C14.5235 3.96233 14.7347 4.20227 15.0248 4.29077C15.5194 4.44107 16.0126 4.64401 16.4912 4.89426C16.757 5.03311 17.0739 5.01137 17.3188 4.83723L18.6581 3.88336C18.78 3.79543 18.9188 3.75099 19.0709 3.75099C19.2646 3.75099 19.4409 3.82462 19.5805 3.96423L21.048 5.43175C21.2985 5.6797 21.3305 6.06995 21.1249 6.35853L20.1729 7.69043C19.9982 7.93533 19.9765 8.2531 20.1159 8.51936C20.3503 8.96683 20.5471 9.44233 20.7013 9.9329C20.7911 10.219 21.0305 10.4277 21.3253 10.4774L22.9405 10.7515L22.9418 10.7517C23.2903 10.8103 23.54 11.1059 23.535 11.4548V13.5349Z" fill="#F21F5B"/>
</svg>
