<svg width="26" height="24" viewBox="0 0 26 24" fill="none" xmlns="http://www.w3.org/2000/svg">
<path d="M22.0479 7.84714C21.5584 7.65701 21.036 7.48448 20.4868 7.32965C20.6286 6.77199 20.7418 6.22897 20.8236 5.70578C21.2489 2.98247 20.7789 1.07213 19.5001 0.326638C19.1283 0.109922 18.7011 0 18.2303 0C16.7432 0 14.8641 1.11514 12.9684 2.99834C12.5543 2.58769 12.1383 2.21051 11.7236 1.87192C9.60053 0.138296 7.72681 -0.405896 6.44811 0.339597C5.62629 0.818663 5.12648 1.79701 5.00284 3.16875C4.98204 3.39915 5.15021 3.60291 5.3784 3.62385C5.60731 3.64519 5.80834 3.47506 5.82914 3.24466C5.89763 2.48537 6.13251 1.49093 6.86295 1.06515C7.80946 0.513249 9.39098 1.04476 11.2019 2.52329C11.597 2.84591 11.9937 3.20567 12.3891 3.59755C11.594 4.45173 10.8027 5.43483 10.043 6.52137C8.70646 6.6442 7.43345 6.85025 6.26517 7.13287C6.0606 6.3299 5.92009 5.56374 5.85077 4.85249C5.82837 4.62226 5.62623 4.45402 5.39727 4.47664C5.16924 4.49927 5.00257 4.70431 5.02503 4.93454C5.09838 5.68713 5.24674 6.49657 5.46299 7.34372C4.93214 7.49487 4.42686 7.66276 3.95217 7.84708C1.4035 8.83683 0 10.203 0 11.694C0 13.1849 1.4035 14.5511 3.95206 15.5408C4.44163 15.7309 4.96395 15.9035 5.51316 16.0583C5.37138 16.6159 5.2582 17.159 5.17643 17.6821C4.75108 20.4055 5.22113 22.3158 6.49994 23.0613C6.87169 23.278 7.29892 23.3879 7.76974 23.3879C9.23974 23.3879 11.0928 22.2979 12.9663 20.4538C13.3677 20.8496 13.7707 21.214 14.1724 21.542C15.675 22.7689 17.0523 23.4001 18.1825 23.4C18.6492 23.3999 19.0742 23.2922 19.4479 23.0743C20.7268 22.3288 21.1968 20.4185 20.7715 17.6952C20.6897 17.172 20.5766 16.6291 20.4348 16.0715C21.2889 15.834 22.0744 15.5543 22.7702 15.2359C22.979 15.1404 23.0715 14.8922 22.9769 14.6814C22.8823 14.4707 22.6364 14.3772 22.4277 14.4728C21.7687 14.7743 21.0239 15.0397 20.2126 15.2655C19.8772 14.1338 19.4306 12.9524 18.8863 11.7574C19.455 10.5217 19.9199 9.29953 20.2661 8.13038C23.3455 9.00093 25.1702 10.3759 25.1702 11.694C25.1702 12.5456 24.4347 13.2482 23.8177 13.6876C23.6304 13.821 23.5857 14.0824 23.7178 14.2714C23.8499 14.4606 24.1087 14.5056 24.2959 14.3723C25.4108 13.5783 26 12.6522 26 11.694C26 10.203 24.5965 8.83683 22.0479 7.84714ZM18.2302 0.837877C18.5535 0.837877 18.8411 0.909985 19.0851 1.05225C20.0317 1.60409 20.3666 3.2527 20.0038 5.57531C19.9261 6.0728 19.8185 6.58957 19.6835 7.12075C18.5104 6.83991 17.233 6.63593 15.8924 6.51556C15.1403 5.44081 14.3509 4.45793 13.5483 3.59699C13.6951 3.45076 13.8421 3.30889 13.9888 3.17238C15.607 1.66693 17.1133 0.837877 18.2302 0.837877ZM12.9696 4.19765C13.5956 4.87137 14.2143 5.62289 14.813 6.43754C14.2172 6.40475 13.6119 6.38777 13 6.38777C12.3676 6.38777 11.7422 6.4057 11.1272 6.44066C11.7251 5.62742 12.3445 4.87282 12.9696 4.19765ZM12.9666 19.2593C12.3184 18.5655 11.6779 17.788 11.0589 16.9432C11.6959 16.9808 12.3442 17.0002 13 17.0002C13.6317 17.0002 14.2575 16.9816 14.8737 16.946C14.2552 17.7874 13.6137 18.5664 12.9666 19.2593ZM13 16.1623C12.1085 16.1623 11.2531 16.1275 10.4379 16.0627C9.98007 15.3882 9.53713 14.6786 9.11543 13.9411C8.70037 13.2153 8.31856 12.4829 7.97271 11.7541C8.33173 10.9911 8.73097 10.223 9.16738 9.45978C9.59002 8.72071 10.0387 8.00404 10.5048 7.32015C11.3 7.25877 12.1328 7.22559 13 7.22559C13.8449 7.22559 14.6571 7.25709 15.4337 7.31546C15.9003 8.00063 16.3515 8.72216 16.7807 9.47274C17.2149 10.2322 17.6123 10.9964 17.97 11.7557C17.626 12.4786 17.2459 13.2055 16.8327 13.9281C16.4109 14.6658 15.9631 15.3812 15.4978 16.0639C14.6838 16.1286 13.8477 16.1623 13 16.1623ZM9.37023 15.9582C8.34943 15.8391 7.40187 15.6717 6.53762 15.4661C6.80005 14.5842 7.13274 13.6698 7.52943 12.741C7.80039 13.2821 8.08971 13.823 8.39678 14.36C8.71033 14.9084 9.03566 15.442 9.37023 15.9582ZM9.43606 7.42198C9.09801 7.94243 8.76792 8.48271 8.44878 9.04087C8.12057 9.61483 7.81267 10.192 7.52623 10.7683C7.10895 9.80105 6.75961 8.84828 6.48689 7.93377C7.38323 7.71823 8.37006 7.54374 9.43606 7.42198ZM0.829787 11.694C0.829787 10.3829 2.63507 9.01568 5.68443 8.1444C6.02935 9.30629 6.49214 10.5249 7.05662 11.7552C6.51377 12.9484 6.06834 14.1278 5.73377 15.2576C2.65454 14.387 0.829787 13.0121 0.829787 11.694ZM7.7698 22.5501C7.44651 22.5501 7.15885 22.4779 6.91489 22.3357C5.96827 21.7838 5.63337 20.1352 5.99621 17.8126C6.07393 17.3151 6.18153 16.7984 6.31645 16.2672C7.45149 16.5389 8.68411 16.7387 9.97709 16.8603C10.7488 17.9666 11.5602 18.9762 12.3851 19.8568C12.2604 19.9797 12.1357 20.0997 12.0112 20.2156C10.393 21.7211 8.88674 22.5501 7.7698 22.5501ZM19.9518 17.8256C20.3147 20.1483 19.9798 21.7969 19.0332 22.3487C18.0865 22.9005 16.5051 22.369 14.6943 20.8906C14.3129 20.5792 13.9301 20.2333 13.5485 19.8573C14.3651 18.9872 15.1783 17.9804 15.9584 16.8647C17.2546 16.7445 18.4932 16.5465 19.6309 16.2777C19.7662 16.8098 19.874 17.3274 19.9518 17.8256ZM19.4081 15.4712C18.5194 15.6797 17.5653 15.8437 16.568 15.9596C16.9046 15.4411 17.2334 14.903 17.5512 14.3471C17.8564 13.8133 18.1439 13.2768 18.413 12.7409C18.8111 13.6714 19.1448 14.5876 19.4081 15.4712ZM18.4169 10.7713C18.1318 10.1983 17.8256 9.62449 17.4993 9.05383C17.1774 8.49092 16.8432 7.94355 16.4993 7.4146C17.57 7.53447 18.5613 7.70745 19.4624 7.92182C19.1883 8.84303 18.8372 9.79982 18.4169 10.7713Z" fill="#F21F5B"/>
<path d="M13.0002 9.59961C11.8564 9.59961 10.9258 10.5392 10.9258 11.6942C10.9258 12.8491 11.8564 13.7887 13.0002 13.7887C14.1441 13.7887 15.0747 12.8491 15.0747 11.6942C15.0747 10.5392 14.1441 9.59961 13.0002 9.59961ZM13.0002 12.9509C12.314 12.9509 11.7556 12.3871 11.7556 11.6942C11.7556 11.0012 12.314 10.4374 13.0002 10.4374C13.6865 10.4374 14.2449 11.0012 14.2449 11.6942C14.2449 12.3871 13.6865 12.9509 13.0002 12.9509Z" fill="#F21F5B"/>
</svg>
