<svg width="18" height="18" viewBox="0 0 18 18" fill="none" xmlns="http://www.w3.org/2000/svg">
<path fill-rule="evenodd" clip-rule="evenodd" d="M12.8666 11.3201H12.0494L11.7654 11.0382C12.7688 9.86805 13.3791 8.35116 13.3791 6.68914C13.3791 2.99468 10.3842 0 6.68951 0C2.99485 0 0 2.99468 0 6.68914C0 10.3836 2.99485 13.3783 6.68951 13.3783C8.35163 13.3783 9.86759 12.7691 11.0377 11.7667L11.3218 12.0487V12.8638L16.4655 18L18 16.4656L12.8666 11.3201ZM6.68963 11.3201C4.13113 11.3201 2.0584 9.2475 2.0584 6.68914C2.0584 4.13183 4.13113 2.05819 6.68963 2.05819C9.24706 2.05819 11.3208 4.13183 11.3208 6.68914C11.3208 9.2475 9.24706 11.3201 6.68963 11.3201Z" fill="#3949E7"/>
</svg>
