<svg width="52" height="52" viewBox="0 0 52 52" fill="none" xmlns="http://www.w3.org/2000/svg">
<path d="M50.05 10.4065V2.08C50.05 0.929499 49.1205 0 47.97 0H4.03004C2.87954 0 1.95004 0.929499 1.95004 2.08V10.4065C0.86454 10.4715 4.02735e-05 11.375 4.02735e-05 12.48V21.0405C-0.00412236 22.6138 0.314441 24.1712 0.93604 25.6165C1.21554 26.2795 1.56004 26.9035 1.95004 27.495V49.92C1.95004 51.064 2.87954 52 4.03004 52H47.97C49.1205 52 50.05 51.0705 50.05 49.92V27.495C50.4461 26.902 50.7856 26.273 51.064 25.6165C51.6815 24.167 52 22.6265 52 21.0405V12.48C52 11.375 51.1355 10.4715 50.05 10.4065ZM6.63004 4.68H45.37V10.4H6.63004V4.68ZM30.16 47.3265H21.84V40.56H30.16V47.3265ZM45.37 47.3265H34.32V38.48C34.32 37.3295 33.3905 36.4 32.24 36.4H19.76C18.6095 36.4 17.68 37.3295 17.68 38.48V47.3265H6.63004V31.5835C6.81854 31.6745 7.01354 31.7655 7.21503 31.8435C8.66453 32.4545 10.205 32.76 11.791 32.76C13.377 32.76 14.911 32.4545 16.367 31.8435C17.264 31.4665 18.109 30.9855 18.8825 30.407C18.8955 30.4005 18.9085 30.4005 18.9215 30.407C19.6974 30.9879 20.5424 31.4705 21.437 31.8435C22.8865 32.4545 24.427 32.76 26.013 32.76C27.599 32.76 29.133 32.4545 30.589 31.8435C31.486 31.4665 32.331 30.9855 33.1045 30.407C33.1175 30.4005 33.1305 30.4005 33.1435 30.407C33.9194 30.9879 34.7644 31.4705 35.659 31.8435C37.1085 32.4545 38.649 32.76 40.235 32.76C41.821 32.76 43.355 32.4545 44.811 31.8435C45.006 31.759 45.201 31.6745 45.396 31.5835V47.3265H45.37ZM47.32 21.0405C47.32 24.9275 44.135 28.08 40.2155 28.08C37.5635 28.08 35.2495 26.6435 34.0275 24.5115C33.839 24.1865 33.501 23.985 33.124 23.985H33.085C32.7145 23.985 32.37 24.1865 32.1815 24.5115C31.5579 25.599 30.6575 26.5021 29.5717 27.1289C28.486 27.7557 27.2537 28.0838 26 28.08C23.3545 28.08 21.047 26.65 19.825 24.5245C19.63 24.193 19.279 23.985 18.8955 23.985C18.512 23.985 18.1545 24.193 17.966 24.5245C17.3388 25.6079 16.4372 26.5069 15.352 27.1311C14.2669 27.7553 13.0364 28.0825 11.7845 28.08C7.86503 28.08 4.68004 24.9275 4.68004 21.0405V15.1125C4.68004 15.093 4.69304 15.08 4.71254 15.08H47.2875C47.307 15.08 47.32 15.093 47.32 15.1125V21.0405Z" fill="#F21F5B"/>
</svg>
